<svg width="16" height="16" viewBox="0 0 16 16" fill="none" xmlns="http://www.w3.org/2000/svg">
<path d="M6.71979 0.959991C3.71854 0.959991 1.27979 3.39874 1.27979 6.39999C1.27979 9.40124 3.71854 11.84 6.71979 11.84C7.90729 11.84 9.00479 11.4575 9.89979 10.81L14.1098 15.01L15.0098 14.11L10.8498 9.93999C11.6673 8.98749 12.1598 7.75124 12.1598 6.39999C12.1598 3.39874 9.72104 0.959991 6.71979 0.959991ZM6.71979 1.59999C9.37479 1.59999 11.5198 3.74499 11.5198 6.39999C11.5198 9.05499 9.37479 11.2 6.71979 11.2C4.06479 11.2 1.91979 9.05499 1.91979 6.39999C1.91979 3.74499 4.06479 1.59999 6.71979 1.59999Z" fill="white"/>
</svg>
